<?xml version="1.0" encoding="utf-8"?>
<!-- Generator: Adobe Illustrator 16.0.0, SVG Export Plug-In . SVG Version: 6.00 Build 0)  -->
<!DOCTYPE svg PUBLIC "-//W3C//DTD SVG 1.1//EN" "http://www.w3.org/Graphics/SVG/1.1/DTD/svg11.dtd">
<svg version="1.1" id="Calque_1" focusable="false" xmlns="http://www.w3.org/2000/svg" xmlns:xlink="http://www.w3.org/1999/xlink"
	 x="0px" y="0px" width="1010px" height="528.053px" viewBox="0 -27.708 1010 528.053"
	 enable-background="new 0 -27.708 1010 528.053" xml:space="preserve">
<path fill="none" stroke="#FCFFFF" stroke-width="8" stroke-miterlimit="10" d="M-517.817-750.26
	c-125.356,0-226.955,88.922-226.955,198.586c0,62.145,32.713,117.555,83.778,153.992c8.511,6.119,13.475,16.047,11.968,26.507
	l-8.333,58.69c-1.241,8.51,5.32,16.135,13.918,16.135h68.885v-49.646c0-3.901,3.191-7.091,7.093-7.091h14.184
	c3.901,0,7.092,3.19,7.092,7.091v49.646h56.739v-49.646c0-3.901,3.193-7.091,7.094-7.091h14.185c3.9,0,7.091,3.19,7.091,7.091
	v49.646h68.886c8.6,0,15.159-7.625,13.917-16.135l-8.331-58.69c-1.507-10.372,3.366-20.388,11.967-26.507
	c51.064-36.437,83.777-91.847,83.777-153.992C-290.863-661.338-392.458-750.26-517.817-750.26z M-602.925-466.564
	c-31.297,0-56.74-25.446-56.74-56.74c0-31.294,25.443-56.737,56.74-56.737c31.294,0,56.736,25.443,56.736,56.737
	C-546.188-492.01-571.63-466.564-602.925-466.564z M-432.711-466.564c-31.292,0-56.737-25.446-56.737-56.74
	c0-31.294,25.446-56.737,56.737-56.737c31.297,0,56.742,25.443,56.742,56.737C-375.969-492.01-401.414-466.564-432.711-466.564z"/>
<g>
	<path fill="none" stroke="#FCFFFF" stroke-width="8.5654" stroke-miterlimit="10" d="M50.132-515.765
		c71.2,70.493,160.751,159.081,183.889,181.693c-28.491,40.996-74.24-2.334-74.24-2.334L15.207-481.193
		c-21.896,21.681-39.701,39.325-49.754,49.272c7.279,13.233,11.424,28.438,11.424,44.604c0,51.179-41.488,92.678-92.678,92.678
		s-92.679-41.499-92.679-92.678c0-51.189,41.489-92.688,92.679-92.688c17.43,0,33.726,4.807,47.645,13.168l48.845-48.929
		l-56.714-56.789c-12.045,5.739-25.536,8.951-39.774,8.951c-51.189,0-92.679-41.499-92.679-92.688
		c0-51.179,41.489-92.678,92.679-92.678c51.188,0,92.678,41.499,92.678,92.678c0,19.326-5.91,37.271-16.028,52.109
		c8.448,8.373,28.576,28.309,54.358,53.845L159.78-695.125c0,0,45.749-43.331,74.24-2.324
		C210.883-674.836,121.332-586.249,50.132-515.765z"/>
	<circle fill="none" stroke="#FCFFFF" stroke-width="8.5654" stroke-miterlimit="10" cx="-114.572" cy="-657.202" r="66.382"/>
	<circle fill="none" stroke="#FCFFFF" stroke-width="8.5654" stroke-miterlimit="10" cx="-115.484" cy="-387.423" r="66.382"/>
</g>
<path fill="none" stroke="#FCFFFF" stroke-width="8" stroke-miterlimit="10" d="M705.96,29.573
	c-125.356,0-226.955,88.922-226.955,198.586c0,62.144,32.713,117.554,83.778,153.992c8.511,6.119,13.475,16.047,11.968,26.508
	l-8.333,58.689c-1.241,8.51,5.32,16.135,13.918,16.135h68.885v-49.646c0-3.9,3.191-7.09,7.093-7.09h14.184
	c3.901,0,7.092,3.189,7.092,7.09v49.646h56.739v-49.646c0-3.9,3.193-7.09,7.094-7.09h14.185c3.9,0,7.091,3.189,7.091,7.09v49.646
	h68.886c8.6,0,15.159-7.625,13.917-16.135l-8.331-58.689c-1.507-10.373,3.366-20.389,11.967-26.508
	c51.064-36.438,83.777-91.848,83.777-153.992C932.914,118.495,831.32,29.573,705.96,29.573z M620.853,313.269
	c-31.297,0-56.74-25.446-56.74-56.739c0-31.295,25.443-56.738,56.74-56.738c31.294,0,56.736,25.443,56.736,56.738
	C677.589,287.822,652.148,313.269,620.853,313.269z M791.067,313.269c-31.292,0-56.737-25.446-56.737-56.739
	c0-31.295,25.446-56.738,56.737-56.738c31.297,0,56.742,25.443,56.742,56.738C847.809,287.822,822.364,313.269,791.067,313.269z"/>
<g>
	<path fill="none" stroke="#FCFFFF" stroke-width="8.5654" stroke-miterlimit="10" d="M335.699,235.723
		c71.2,70.493,160.751,159.081,183.889,181.693c-28.491,40.996-74.24-2.334-74.24-2.334L300.775,270.295
		c-21.896,21.682-39.701,39.324-49.754,49.271c7.279,13.233,11.424,28.438,11.424,44.604c0,51.179-41.488,92.678-92.678,92.678
		s-92.679-41.499-92.679-92.678c0-51.188,41.489-92.688,92.679-92.688c17.43,0,33.726,4.807,47.645,13.168l48.845-48.929
		l-56.714-56.789c-12.045,5.739-25.536,8.951-39.774,8.951c-51.189,0-92.679-41.499-92.679-92.688
		c0-51.179,41.489-92.678,92.679-92.678c51.188,0,92.678,41.499,92.678,92.678c0,19.326-5.91,37.271-16.028,52.109
		c8.448,8.373,28.576,28.309,54.358,53.845L445.347,56.363c0,0,45.749-43.331,74.24-2.324
		C496.45,76.652,406.9,165.239,335.699,235.723z"/>
	<circle fill="none" stroke="#FCFFFF" stroke-width="8.5654" stroke-miterlimit="10" cx="170.995" cy="94.286" r="66.382"/>
	<circle fill="none" stroke="#FCFFFF" stroke-width="8.5654" stroke-miterlimit="10" cx="170.083" cy="364.065" r="66.382"/>
</g>
</svg>
